<?xml version="1.0" encoding="UTF-8"?>
<svg version="1.1" xmlns="http://www.w3.org/2000/svg" width="512" height="512">
<path d="M0 0 C0.8758374 0.00902344 1.7516748 0.01804688 2.65405273 0.02734375 C15.99458588 0.38226971 25.57263335 5.26887317 35.25390625 14.3828125 C43.85264499 23.55727673 47.0255112 34.19050684 47.94140625 46.43359375 C47.97829325 48.43350793 47.97829325 48.43350793 49.1875 49.4375 C50.62188753 49.53867712 52.06120115 49.57101182 53.49914551 49.57553101 C54.89527573 49.58371101 54.89527573 49.58371101 56.3196106 49.59205627 C57.34915863 49.5930986 58.37870667 49.59414093 59.43945312 49.59521484 C61.05658707 49.60283592 61.05658707 49.60283592 62.70639038 49.61061096 C65.0576139 49.62134357 67.40884782 49.62995231 69.76008606 49.63673019 C73.48443997 49.64848703 77.20867623 49.66793411 80.9329834 49.68984985 C91.5259258 49.7515561 102.11884441 49.80566581 112.71191406 49.83886719 C119.18410585 49.85984784 125.65608722 49.89518659 132.12815857 49.93962479 C134.59359758 49.9537666 137.05907387 49.9625031 139.52455139 49.96567917 C142.98338704 49.97060399 146.44166819 49.99380613 149.90039062 50.02099609 C151.42042191 50.01648689 151.42042191 50.01648689 152.97116089 50.0118866 C160.43049316 50.09868533 168.25262979 51.04244081 174.0625 56.1875 C174.59617187 56.63609375 175.12984375 57.0846875 175.6796875 57.546875 C181.01707223 64.23934705 180.60064681 71.24281426 180.52807617 79.44116211 C180.52851425 80.73940918 180.52895233 82.03765625 180.52940369 83.37524414 C180.5302611 86.91823124 180.51267688 90.46091092 180.49168181 94.00382686 C180.47287242 97.71270467 180.47116123 101.42159027 180.46760559 105.13050842 C180.4582976 112.14624607 180.43370081 119.16184274 180.40355712 126.17751843 C180.3699742 134.16783528 180.35351734 142.15815902 180.33847082 150.14852893 C180.30715004 166.57826835 180.25441396 183.00786616 180.1875 199.4375 C180.79635544 199.49699829 181.40521088 199.55649658 182.03251648 199.61779785 C182.83607071 199.70074097 183.63962494 199.78368408 184.4675293 199.86914062 C185.26200974 199.94926392 186.05649017 200.02938721 186.87504578 200.11193848 C197.66611757 201.63117191 207.10059182 208.60963142 215.1875 215.4375 C215.84234375 215.97890625 216.4971875 216.5203125 217.171875 217.078125 C229.97202603 228.70395025 237.417567 246.74236947 238.30886841 263.75396729 C238.49247577 269.25658177 238.51563961 274.7574347 238.50317383 280.26269531 C238.50002148 283.16770259 238.52351486 286.07168094 238.54882812 288.9765625 C238.62420432 310.76887651 235.19389406 329.00038998 221.1875 346.4375 C220.29804687 347.64986328 220.29804687 347.64986328 219.390625 348.88671875 C216.59434062 352.12426077 213.4502448 354.59604986 210.0625 357.1875 C209.42957031 357.68121094 208.79664063 358.17492187 208.14453125 358.68359375 C203.50585183 362.27832408 203.50585183 362.27832408 201.1875 363.4375 C202.99383911 363.45937378 202.99383911 363.45937378 204.83666992 363.48168945 C209.36396946 363.54027135 213.89080227 363.61749288 218.41772461 363.69995117 C220.36588894 363.73292184 222.31414242 363.76103752 224.26245117 363.78393555 C245.5429476 364.04072202 263.90348961 366.8759697 279.55859375 382.5390625 C289.73949386 393.76376961 295.49528919 407.2981691 295.47802734 422.42041016 C295.48474457 423.28000839 295.49146179 424.13960663 295.49838257 425.0252533 C295.51724887 427.84241647 295.52128009 430.65934026 295.5234375 433.4765625 C295.52987019 435.44615779 295.5365989 437.41575214 295.54360962 439.38534546 C295.55555162 443.50236224 295.5592933 447.61929526 295.55810547 451.73632812 C295.55790173 457.00668378 295.58527413 462.27650353 295.61964989 467.54673195 C295.64189654 471.60969506 295.6459438 475.67252833 295.64488602 479.73554611 C295.64724263 481.67878451 295.65606955 483.62202646 295.67155075 485.56520462 C295.69117816 488.28164553 295.68538708 490.99691863 295.67333984 493.71337891 C295.68457886 494.51145462 295.69581787 495.30953033 295.70739746 496.13179016 C295.64871928 501.34664605 294.71906323 504.3635316 291.1875 508.4375 C286.63543668 512.09228495 283.14519687 513.01672219 277.44094944 512.94086456 C276.67635539 512.94667833 275.91176134 512.95249209 275.12399778 512.95848203 C272.5587901 512.97309426 269.99453744 512.95919148 267.42933655 512.94543457 C265.57298192 512.95004301 263.71663094 512.95639555 261.86028761 512.96434355 C256.7565507 512.98106789 251.65311232 512.97277633 246.54937422 512.96039867 C241.04620614 512.95136317 235.54309006 512.96531051 230.03993225 512.97631836 C219.25793641 512.99412454 208.47605181 512.99025413 197.69405157 512.9786678 C188.93232612 512.96964154 180.17063189 512.96840598 171.40890312 512.97276306 C170.16282456 512.97337599 168.91674601 512.97398893 167.63290749 512.97462043 C165.1016668 512.97589931 162.57042613 512.97719616 160.03918546 512.9785108 C136.96881445 512.98959741 113.89849603 512.97809134 90.82813779 512.95714041 C69.7676355 512.93816012 48.70722996 512.93985431 27.64672852 512.95898438 C3.98678442 512.98040375 -19.67311706 512.98882185 -43.33307272 512.97653532 C-45.85541093 512.9752611 -48.37774914 512.97400362 -50.90008736 512.97276306 C-52.14118207 512.97214596 -53.38227677 512.97152886 -54.66098041 512.97089306 C-63.41320544 512.96743721 -72.16539618 512.97327362 -80.91761589 512.98268127 C-91.58227956 512.99389239 -102.24682544 512.99087992 -112.91147559 512.9695583 C-118.35434162 512.95903567 -123.79701116 512.95494679 -129.23987579 512.96815491 C-134.22086212 512.98005948 -139.20146953 512.97354802 -144.18242139 512.9522447 C-145.98585018 512.94777042 -147.78931086 512.95006337 -149.59271919 512.95974785 C-152.04230535 512.97189494 -154.49059022 512.95945469 -156.9401083 512.94086456 C-157.64195957 512.95022923 -158.34381084 512.95959389 -159.06693032 512.96924233 C-164.99899151 512.87913119 -169.15369182 510.8711917 -173.51953125 506.875 C-177.7912457 501.32026177 -179.06214712 498.28975652 -179.06976891 491.2025404 C-179.07327498 490.46895639 -179.07678105 489.73537238 -179.08039337 488.97955856 C-179.0897375 486.50804145 -179.08477635 484.03675842 -179.07992554 481.56523132 C-179.08366028 479.78072743 -179.0882611 477.99622518 -179.09365618 476.21172553 C-179.10592335 471.2973771 -179.10562135 466.38309655 -179.10326743 461.46873629 C-179.1028602 456.17277064 -179.11388943 450.87682703 -179.12338257 445.58087158 C-179.14001395 435.20102837 -179.14549308 424.82120787 -179.14660732 414.44135245 C-179.1475568 406.00614891 -179.15166203 397.57095289 -179.15800858 389.13575172 C-179.17562688 365.23369035 -179.18484653 341.33164696 -179.18334763 317.42957904 C-179.18326772 316.14031063 -179.1831878 314.85104223 -179.18310547 313.52270508 C-179.18302371 312.23186706 -179.18294195 310.94102904 -179.18285771 309.61107472 C-179.18204466 288.68711418 -179.20118557 267.7632256 -179.2293822 246.83928587 C-179.25808902 225.36775467 -179.27192371 203.8962586 -179.27019465 182.42470771 C-179.26952998 170.36483556 -179.27505583 158.30503884 -179.29655075 146.24518394 C-179.31473359 135.97756821 -179.31913375 125.71006209 -179.3055319 115.44243725 C-179.29898759 110.20210097 -179.29893778 104.96197516 -179.3162384 99.72165871 C-179.33190957 94.92564333 -179.32916661 90.13000638 -179.31167014 85.33400057 C-179.30858707 83.59780083 -179.31228155 81.86157328 -179.32339029 80.12540635 C-179.33748561 77.76647271 -179.32694666 75.4088712 -179.31027794 73.04998302 C-179.31071267 71.73945813 -179.31114741 70.42893324 -179.31159532 69.07869548 C-178.54020029 63.45091263 -175.91293369 58.8735533 -171.5625 55.125 C-171.04171875 54.65449219 -170.5209375 54.18398438 -169.984375 53.69921875 C-163.45205491 49.90436373 -155.94380722 50.13417899 -148.62304688 50.11865234 C-147.52947876 50.10860672 -146.43591064 50.0985611 -145.3092041 50.08821106 C-141.71655778 50.05747088 -138.12398568 50.04036924 -134.53125 50.0234375 C-132.03160976 50.00471851 -129.53197578 49.98514455 -127.03234863 49.9647522 C-121.1394281 49.91873269 -115.24650259 49.88129688 -109.35349703 49.84807932 C-101.98038993 49.8059878 -94.60739399 49.75046199 -87.234375 49.6953125 C-74.09381057 49.59863791 -60.95319754 49.51383257 -47.8125 49.4375 C-47.6263916 48.28499756 -47.4402832 47.13249512 -47.24853516 45.94506836 C-46.99160296 44.40992783 -46.73425672 42.87485655 -46.4765625 41.33984375 C-46.35547119 40.58296265 -46.23437988 39.82608154 -46.10961914 39.04626465 C-43.95502544 26.37520172 -37.30714717 16.16933694 -27.10546875 8.3671875 C-18.41674919 2.55850505 -10.44693141 -0.1295869 0 0 Z " fill="#FDFDFD" transform="translate(197.8125,-0.4375)"/>
<path d="M0 0 C0.8758374 0.00902344 1.7516748 0.01804688 2.65405273 0.02734375 C15.99458588 0.38226971 25.57263335 5.26887317 35.25390625 14.3828125 C43.85264499 23.55727673 47.0255112 34.19050684 47.94140625 46.43359375 C47.97829325 48.43350793 47.97829325 48.43350793 49.1875 49.4375 C50.62188753 49.53867712 52.06120115 49.57101182 53.49914551 49.57553101 C54.89527573 49.58371101 54.89527573 49.58371101 56.3196106 49.59205627 C57.34915863 49.5930986 58.37870667 49.59414093 59.43945312 49.59521484 C61.05658707 49.60283592 61.05658707 49.60283592 62.70639038 49.61061096 C65.0576139 49.62134357 67.40884782 49.62995231 69.76008606 49.63673019 C73.48443997 49.64848703 77.20867623 49.66793411 80.9329834 49.68984985 C91.5259258 49.7515561 102.11884441 49.80566581 112.71191406 49.83886719 C119.18410585 49.85984784 125.65608722 49.89518659 132.12815857 49.93962479 C134.59359758 49.9537666 137.05907387 49.9625031 139.52455139 49.96567917 C142.98338704 49.97060399 146.44166819 49.99380613 149.90039062 50.02099609 C151.42042191 50.01648689 151.42042191 50.01648689 152.97116089 50.0118866 C160.43049316 50.09868533 168.25262979 51.04244081 174.0625 56.1875 C174.59617187 56.63609375 175.12984375 57.0846875 175.6796875 57.546875 C181.01707223 64.23934705 180.60064681 71.24281426 180.52807617 79.44116211 C180.52851425 80.73940918 180.52895233 82.03765625 180.52940369 83.37524414 C180.5302611 86.91823124 180.51267688 90.46091092 180.49168181 94.00382686 C180.47287242 97.71270467 180.47116123 101.42159027 180.46760559 105.13050842 C180.4582976 112.14624607 180.43370081 119.16184274 180.40355712 126.17751843 C180.3699742 134.16783528 180.35351734 142.15815902 180.33847082 150.14852893 C180.30715004 166.57826835 180.25441396 183.00786616 180.1875 199.4375 C180.79635544 199.49699829 181.40521088 199.55649658 182.03251648 199.61779785 C182.83607071 199.70074097 183.63962494 199.78368408 184.4675293 199.86914062 C185.26200974 199.94926392 186.05649017 200.02938721 186.87504578 200.11193848 C197.66611757 201.63117191 207.10059182 208.60963142 215.1875 215.4375 C215.84234375 215.97890625 216.4971875 216.5203125 217.171875 217.078125 C229.31569218 228.10783051 236.86139582 245.31284193 238.1875 261.4375 C238.37396805 266.77248869 238.30938066 272.10183545 238.1875 277.4375 C234.8960089 277.52607863 231.60483195 277.5784104 228.3125 277.625 C226.93578125 277.66270508 226.93578125 277.66270508 225.53125 277.70117188 C214.12421777 277.82166869 205.20109083 274.4175368 196.1875 267.4375 C193.64616273 264.91381091 191.35567306 262.2864646 189.1875 259.4375 C184.21810826 260.20077259 183.28407905 261.4807601 180.1875 265.4375 C171.33684607 273.57791627 161.66442976 277.57434841 149.65307617 277.55102539 C148.35210495 277.55094986 147.05113373 277.55087433 145.71073914 277.55079651 C144.30064861 277.54569062 142.89055849 277.54047464 141.48046875 277.53515625 C140.03029937 277.53328979 138.58012935 277.53186696 137.12995911 277.53086853 C133.32417034 277.5270613 129.51842009 277.51724642 125.71264648 277.50616455 C121.82471233 277.49591177 117.93677192 277.49136264 114.04882812 277.48632812 C106.42836791 277.47562246 98.80793936 277.4585677 91.1875 277.4375 C91.1268801 273.95059802 91.0907108 270.46383429 91.05859375 266.9765625 C91.04131226 265.99953369 91.02403076 265.02250488 91.00622559 264.01586914 C90.88765532 246.80521549 98.1928573 232.08292093 109.9375 219.68359375 C119.90684463 209.73155701 131.47776507 201.39831324 145.87084961 199.88989258 C146.67969101 199.8039534 147.48853241 199.71801422 148.32188416 199.62947083 C148.93753738 199.56612045 149.55319061 199.50277008 150.1875 199.4375 C150.08034954 184.47785567 149.9676042 169.51826136 149.84816074 154.5587101 C149.79283471 147.61305052 149.73935374 140.66738581 149.69018555 133.72167969 C149.64276662 127.02380793 149.59024676 120.32599423 149.53455925 113.62818527 C149.51411484 111.06763385 149.49540528 108.50706799 149.47842598 105.94649124 C149.45442811 102.37133798 149.42436726 98.79628489 149.39282227 95.22119141 C149.3870668 94.15304703 149.38131134 93.08490265 149.37538147 91.98439026 C149.36069824 90.52882469 149.36069824 90.52882469 149.34571838 89.04385376 C149.33926583 88.1976478 149.33281328 87.35144184 149.3261652 86.47959328 C149.31481117 84.37079653 149.31481117 84.37079653 148.1875 82.4375 C127.7275 82.1075 107.2675 81.7775 86.1875 81.4375 C86.1875 85.0675 86.1875 88.6975 86.1875 92.4375 C83.75872453 96.24476965 82.47253647 98.00915451 78.1875 99.4375 C76.10841122 99.53756748 74.02622883 99.57686714 71.94474792 99.58467102 C70.63668686 99.59182632 69.32862579 99.59898163 67.98092651 99.60635376 C66.5278933 99.609194 65.07485984 99.61190573 63.62182617 99.61450195 C62.09419093 99.62076724 60.56655722 99.6274141 59.03892517 99.63441467 C54.01945048 99.65544761 48.9999755 99.66581552 43.98046875 99.67578125 C42.25234778 99.67982893 40.52422698 99.68394585 38.79610634 99.68813133 C30.67814464 99.70718038 22.56019203 99.72141268 14.44221228 99.7297433 C5.07116186 99.73951866 -4.29965254 99.76584707 -13.67061979 99.80624419 C-20.91402825 99.8363984 -28.15736902 99.85121147 -35.40083903 99.85452431 C-39.72708303 99.85687538 -44.0530748 99.86584319 -48.37925148 99.89098549 C-52.44966033 99.91425953 -56.51965074 99.91850231 -60.59010887 99.90822411 C-62.08244595 99.90772849 -63.57480358 99.91405674 -65.06707764 99.92778015 C-67.10757406 99.94549249 -69.14825209 99.93600978 -71.188797 99.92524719 C-72.90025264 99.92882972 -72.90025264 99.92882972 -74.64628315 99.93248463 C-78.5456408 99.3228858 -80.72773507 97.85041571 -83.8125 95.4375 C-85.97983896 92.39084066 -86.03439205 89.86939777 -85.9375 86.1875 C-85.91945313 85.29546875 -85.90140625 84.4034375 -85.8828125 83.484375 C-85.85960938 82.80890625 -85.83640625 82.1334375 -85.8125 81.4375 C-93.74873241 81.5448534 -101.68486525 81.65745611 -109.62092495 81.77683926 C-113.3056019 81.83210165 -116.99028673 81.88552679 -120.67504883 81.93481445 C-124.22827841 81.98240932 -127.78140875 82.03475007 -131.33452034 82.09044075 C-132.69292811 82.1108865 -134.05136312 82.12959585 -135.40981865 82.14657402 C-137.30639705 82.17056877 -139.20288799 82.20120332 -141.09936523 82.23217773 C-142.72152199 82.25549416 -142.72152199 82.25549416 -144.37644958 82.27928162 C-146.76001051 82.16508019 -146.76001051 82.16508019 -147.8125 83.4375 C-147.91136932 85.54238036 -147.93805725 87.65064957 -147.93834114 89.75785065 C-147.93979458 90.42898925 -147.94124802 91.10012785 -147.94274551 91.79160398 C-147.94643117 94.06865162 -147.9429073 96.34563338 -147.93948364 98.62268066 C-147.94063445 100.26037713 -147.9422217 101.89807333 -147.94421089 103.53576899 C-147.94840977 108.05801077 -147.94631102 112.58023161 -147.94322467 117.1024735 C-147.94097305 121.97096099 -147.94444899 126.83944475 -147.94720459 131.70793152 C-147.95166384 141.25397659 -147.95068513 150.80001382 -147.94779195 160.3460592 C-147.94553852 168.10060527 -147.94522513 175.85514913 -147.94631577 183.60969543 C-147.946469 184.71108963 -147.94662223 185.81248383 -147.94678011 186.94725361 C-147.94709982 189.18433535 -147.94742403 191.42141709 -147.9477527 193.65849882 C-147.95060795 214.66233381 -147.94731977 235.66616444 -147.94195233 256.66999871 C-147.93748425 274.71343231 -147.93826017 292.75685948 -147.94287109 310.80029297 C-147.94821607 331.72619594 -147.95033325 352.65209508 -147.94725883 373.57799864 C-147.94694026 375.80710061 -147.94662589 378.03620259 -147.94631577 380.26530457 C-147.94616149 381.36222064 -147.94600721 382.45913672 -147.94584826 383.58929268 C-147.94498288 391.33938066 -147.94644645 399.08946622 -147.94879532 406.83955383 C-147.95159267 416.27734529 -147.95085644 425.71512843 -147.94551457 435.15291893 C-147.94287668 439.97318869 -147.94187398 444.79344455 -147.94516373 449.61371422 C-147.94812489 454.01897653 -147.94653692 458.42421193 -147.94118617 462.82947177 C-147.94006121 464.43039094 -147.9406549 466.03131235 -147.94306196 467.6322301 C-147.94606496 469.79390303 -147.94302252 471.95548152 -147.93834114 474.11714935 C-147.93809761 475.92475432 -147.93809761 475.92475432 -147.93784916 477.76887655 C-148.11628795 480.35809563 -148.11628795 480.35809563 -146.8125 481.4375 C-144.48525499 481.54748251 -142.18704049 481.59245322 -139.85874939 481.59571838 C-138.75490862 481.60312535 -138.75490862 481.60312535 -137.62876803 481.61068195 C-135.14436012 481.62613199 -132.65997819 481.63443775 -130.17553711 481.64282227 C-128.40201079 481.6523949 -126.62848678 481.66240461 -124.85496521 481.67282104 C-120.02461469 481.69994278 -115.19425433 481.72091286 -110.36386943 481.74082303 C-105.32162717 481.76263791 -100.27941549 481.79004853 -95.23719788 481.81687927 C-85.68201991 481.86686718 -76.12682502 481.91178331 -66.57161385 481.95490164 C-55.69632395 482.00422201 -44.82106473 482.05915936 -33.94580448 482.11458123 C-11.56806471 482.22849485 10.80970478 482.33511411 33.1875 482.4375 C33.1875 492.3375 33.1875 502.2375 33.1875 512.4375 C7.49243182 512.53008973 -18.20259618 512.60147533 -43.89779758 512.64474869 C-55.82848858 512.66537517 -67.75907402 512.69349758 -79.68969727 512.73925781 C-90.0882507 512.77912274 -100.48672769 512.80493218 -110.88535541 512.81385398 C-116.39153215 512.81906927 -121.89749021 512.83132918 -127.40359688 512.86042023 C-132.58689947 512.88758372 -137.76989342 512.89594302 -142.95326042 512.88993073 C-144.85476738 512.89103053 -146.75628473 512.89897877 -148.6577301 512.9143219 C-151.25682198 512.93426453 -153.85475317 512.92942383 -156.45387268 512.91851807 C-157.57889949 512.93599512 -157.57889949 512.93599512 -158.72665411 512.95382524 C-164.85993052 512.88440631 -169.00181598 511.01020849 -173.51953125 506.875 C-177.7912457 501.32026177 -179.06214712 498.28975652 -179.06976891 491.2025404 C-179.07327498 490.46895639 -179.07678105 489.73537238 -179.08039337 488.97955856 C-179.0897375 486.50804145 -179.08477635 484.03675842 -179.07992554 481.56523132 C-179.08366028 479.78072743 -179.0882611 477.99622518 -179.09365618 476.21172553 C-179.10592335 471.2973771 -179.10562135 466.38309655 -179.10326743 461.46873629 C-179.1028602 456.17277064 -179.11388943 450.87682703 -179.12338257 445.58087158 C-179.14001395 435.20102837 -179.14549308 424.82120787 -179.14660732 414.44135245 C-179.1475568 406.00614891 -179.15166203 397.57095289 -179.15800858 389.13575172 C-179.17562688 365.23369035 -179.18484653 341.33164696 -179.18334763 317.42957904 C-179.18326772 316.14031063 -179.1831878 314.85104223 -179.18310547 313.52270508 C-179.18302371 312.23186706 -179.18294195 310.94102904 -179.18285771 309.61107472 C-179.18204466 288.68711418 -179.20118557 267.7632256 -179.2293822 246.83928587 C-179.25808902 225.36775467 -179.27192371 203.8962586 -179.27019465 182.42470771 C-179.26952998 170.36483556 -179.27505583 158.30503884 -179.29655075 146.24518394 C-179.31473359 135.97756821 -179.31913375 125.71006209 -179.3055319 115.44243725 C-179.29898759 110.20210097 -179.29893778 104.96197516 -179.3162384 99.72165871 C-179.33190957 94.92564333 -179.32916661 90.13000638 -179.31167014 85.33400057 C-179.30858707 83.59780083 -179.31228155 81.86157328 -179.32339029 80.12540635 C-179.33748561 77.76647271 -179.32694666 75.4088712 -179.31027794 73.04998302 C-179.31071267 71.73945813 -179.31114741 70.42893324 -179.31159532 69.07869548 C-178.54020029 63.45091263 -175.91293369 58.8735533 -171.5625 55.125 C-171.04171875 54.65449219 -170.5209375 54.18398438 -169.984375 53.69921875 C-163.45205491 49.90436373 -155.94380722 50.13417899 -148.62304688 50.11865234 C-147.52947876 50.10860672 -146.43591064 50.0985611 -145.3092041 50.08821106 C-141.71655778 50.05747088 -138.12398568 50.04036924 -134.53125 50.0234375 C-132.03160976 50.00471851 -129.53197578 49.98514455 -127.03234863 49.9647522 C-121.1394281 49.91873269 -115.24650259 49.88129688 -109.35349703 49.84807932 C-101.98038993 49.8059878 -94.60739399 49.75046199 -87.234375 49.6953125 C-74.09381057 49.59863791 -60.95319754 49.51383257 -47.8125 49.4375 C-47.6263916 48.28499756 -47.4402832 47.13249512 -47.24853516 45.94506836 C-46.99160296 44.40992783 -46.73425672 42.87485655 -46.4765625 41.33984375 C-46.35547119 40.58296265 -46.23437988 39.82608154 -46.10961914 39.04626465 C-43.95502544 26.37520172 -37.30714717 16.16933694 -27.10546875 8.3671875 C-18.41674919 2.55850505 -10.44693141 -0.1295869 0 0 Z " fill="#FEDE30" transform="translate(197.8125,-0.4375)"/>
<path d="M0 0 C1.00247772 -0.00287018 2.00495544 -0.00574036 3.03781128 -0.00869751 C5.15411953 -0.01073256 7.27044683 -0.00524195 9.38671875 0.00732422 C12.58637865 0.02328383 15.78475583 0.00750855 18.984375 -0.01171875 C39.05002336 -0.0340458 56.32858812 2.79864538 71.42797852 17.06396484 C81.67187615 27.31308984 88.61978128 41.384691 88.78546143 55.97520447 C88.78455505 56.76923172 88.78364868 57.56325897 88.78271484 58.38134766 C88.78943207 59.24094589 88.79614929 60.10054413 88.80307007 60.9861908 C88.82193637 63.80335397 88.82596759 66.62027776 88.828125 69.4375 C88.83455769 71.40709529 88.8412864 73.37668964 88.84829712 75.34628296 C88.86023912 79.46329974 88.8639808 83.58023276 88.86279297 87.69726562 C88.86258923 92.96762128 88.88996163 98.23744103 88.92433739 103.50766945 C88.94658404 107.57063256 88.9506313 111.63346583 88.94957352 115.69648361 C88.95193013 117.63972201 88.96075705 119.58296396 88.97623825 121.52614212 C88.99586566 124.24258303 88.99007458 126.95785613 88.97802734 129.67431641 C88.98926636 130.47239212 89.00050537 131.27046783 89.01208496 132.09272766 C88.95340678 137.30758355 88.02375073 140.3244691 84.4921875 144.3984375 C79.17608042 148.940479 74.87101159 148.96011926 68.20376587 148.87945557 C66.65249325 148.88458212 66.65249325 148.88458212 65.0698818 148.88981223 C61.60571315 148.89639901 58.14231989 148.87440091 54.67822266 148.85253906 C52.19461078 148.85141076 49.71099757 148.8520441 47.22738647 148.85430908 C41.88096783 148.85521985 36.53479039 148.8438772 31.1884346 148.82135773 C23.45858884 148.78881994 15.72883744 148.77842891 7.99893062 148.77340576 C-4.54292145 148.76465588 -17.08466933 148.73804868 -29.62646484 148.70019531 C-41.80810017 148.66346725 -53.98970718 148.63515939 -66.17138672 148.61816406 C-67.29810654 148.61658772 -67.29810654 148.61658772 -68.44758837 148.61497954 C-72.21595034 148.6097593 -75.98431251 148.60470449 -79.75267482 148.59973192 C-111.00447971 148.55827943 -142.25609082 148.48454682 -173.5078125 148.3984375 C-173.5078125 123.6484375 -173.5078125 98.8984375 -173.5078125 73.3984375 C-182.19158203 73.48544922 -182.19158203 73.48544922 -191.05078125 73.57421875 C-194.71942908 73.59976803 -198.38796714 73.6238376 -202.05664062 73.64257812 C-207.8792195 73.67246231 -213.70140506 73.70780598 -219.52368164 73.77563477 C-224.21805949 73.82998113 -228.91201556 73.85986363 -233.60668373 73.87282372 C-235.39728752 73.88205891 -237.18786835 73.90009343 -238.97829247 73.92708778 C-241.48758098 73.9634142 -243.99512931 73.96838153 -246.50463867 73.96606445 C-247.24407211 73.98404083 -247.98350555 74.00201721 -248.74534607 74.02053833 C-252.66556522 73.98139807 -254.3591534 73.51596278 -257.47285461 71.05436707 C-259.5078125 68.3984375 -259.5078125 68.3984375 -260.0703125 65.3359375 C-259.36084429 61.63093687 -258.51755398 60.65210866 -255.5078125 58.3984375 C-252.71216248 58.0242757 -250.31700437 57.89099524 -247.52636719 57.94433594 C-246.7259903 57.94375183 -245.9256134 57.94316772 -245.10098267 57.94256592 C-242.46010705 57.94534875 -239.82036549 57.97644916 -237.1796875 58.0078125 C-235.34695045 58.0152742 -233.51420541 58.02096747 -231.68145752 58.02496338 C-226.86110348 58.04022529 -222.04123265 58.07951188 -217.22106934 58.1237793 C-212.30109189 58.16471999 -207.38103625 58.18297183 -202.4609375 58.203125 C-192.8096837 58.24600561 -183.1587883 58.31426369 -173.5078125 58.3984375 C-173.4465921 57.57428848 -173.3853717 56.75013947 -173.32229614 55.90101624 C-173.19587234 54.27950905 -173.19587234 54.27950905 -173.06689453 52.62524414 C-172.98504913 51.55359512 -172.90320374 50.48194611 -172.81887817 49.37782288 C-171.61183709 37.81678978 -164.68263172 26.41282127 -156.5078125 18.3984375 C-157.72446091 18.39701248 -158.94110931 18.39558746 -160.19462585 18.39411926 C-171.65712892 18.37745403 -183.11927676 18.33469469 -194.58159161 18.26634693 C-200.47461226 18.23204763 -206.36737285 18.20696232 -212.26049805 18.20288086 C-217.94711857 18.19860431 -223.63315215 18.17019429 -229.31958961 18.12500572 C-231.4896789 18.11201025 -233.65983836 18.10773025 -235.82996178 18.11228371 C-238.86865084 18.11717495 -241.9056147 18.09116172 -244.9440918 18.05786133 C-245.84248779 18.06648697 -246.74088379 18.07511261 -247.66650391 18.08399963 C-252.08161686 18.00282207 -253.96428992 17.80507486 -257.60163879 15.08378601 C-259.5078125 12.3984375 -259.5078125 12.3984375 -259.5703125 8.7734375 C-258.39143377 5.02876388 -257.78212579 4.33843236 -254.5078125 2.3984375 C-252.35573578 2.02091408 -252.35573578 2.02091408 -249.99157715 2.01748657 C-249.09154465 2.0090271 -248.19151215 2.00056763 -247.26420593 1.99185181 C-246.28434219 1.9979245 -245.30447845 2.00399719 -244.29492188 2.01025391 C-243.25713089 2.00499695 -242.2193399 1.99973999 -241.15010071 1.99432373 C-237.71710188 1.98111191 -234.28456611 1.98986628 -230.8515625 2 C-228.4678946 1.99797961 -226.0842273 1.99506847 -223.70056152 1.99130249 C-218.70379758 1.98687752 -213.70719448 1.99331592 -208.71044922 2.00732422 C-202.30093331 2.02441599 -195.89179425 2.01457576 -189.48229218 1.99660683 C-184.55984653 1.98577378 -179.63749044 1.98921317 -174.71504211 1.9969902 C-172.3515061 1.99899353 -169.98796199 1.99652833 -167.62443542 1.98955154 C-164.32297176 1.98194517 -161.02212106 1.99353049 -157.72070312 2.01025391 C-156.74083939 2.00418121 -155.76097565 1.99810852 -154.75141907 1.99185181 C-153.85138657 2.00031128 -152.95135406 2.00877075 -152.02404785 2.01748657 C-151.2438755 2.01861765 -150.46370316 2.01974873 -149.65988922 2.02091408 C-146.93100049 2.4996235 -145.51923239 3.52348822 -143.5078125 5.3984375 C-143.5078125 6.0584375 -143.5078125 6.7184375 -143.5078125 7.3984375 C-142.55519531 7.04910156 -141.60257812 6.69976562 -140.62109375 6.33984375 C-139.35423471 5.88002084 -138.0873038 5.42039588 -136.8203125 4.9609375 C-136.19447266 4.73083984 -135.56863281 4.50074219 -134.92382812 4.26367188 C-129.65086271 2.35877861 -124.94337526 1.28413974 -119.34130859 1.22143555 C-118.33611176 1.20860031 -117.33091492 1.19576508 -116.29525757 1.18254089 C-115.21813507 1.17515396 -114.14101257 1.16776703 -113.03125 1.16015625 C-111.91021881 1.1520845 -110.78918762 1.14401276 -109.63418579 1.13569641 C-107.26216161 1.12188053 -104.89011775 1.11114725 -102.51806641 1.10327148 C-100.10524627 1.09176643 -97.69245128 1.07133827 -95.27978516 1.04174805 C-91.78009875 0.99884681 -88.28116751 0.98286962 -84.78125 0.97265625 C-83.71627289 0.95514816 -82.65129578 0.93764008 -81.55404663 0.91960144 C-75.08550658 0.93808008 -69.9673981 1.93387295 -63.98306274 4.41633606 C-49.24350925 10.26452727 -32.18138214 8.17773741 -17.5078125 3.3984375 C-16.49557617 2.88756592 -15.48333984 2.37669434 -14.44042969 1.8503418 C-9.71788691 -0.18612002 -5.07286158 -0.03238785 0 0 Z " fill="#B3D9FD" transform="translate(404.5078125,363.6015625)"/>
<path d="M0 0 C0.72293243 -0.00029205 1.44586487 -0.00058411 2.19070435 -0.00088501 C4.54978992 0.00049408 6.90854861 0.01598716 9.26757812 0.03173828 C10.91524076 0.03547348 12.56290563 0.03831806 14.21057129 0.04031372 C18.52435557 0.04791027 22.83800284 0.0675241 27.1517334 0.08972168 C31.5627253 0.1102663 35.97373956 0.11933378 40.38476562 0.12939453 C49.022856 0.15077416 57.66080918 0.18592338 66.29882812 0.22705078 C66.29882812 10.45705078 66.29882812 20.68705078 66.29882812 31.22705078 C61.90699219 31.28763672 57.51515625 31.34822266 52.99023438 31.41064453 C49.49754698 31.46158016 46.00487736 31.51350172 42.51221466 31.56609344 C38.82026664 31.62141412 35.1283119 31.67498032 31.4362793 31.72436523 C27.88304972 31.7719601 24.32991938 31.82430085 20.77680779 31.87999153 C19.41840002 31.90043728 18.05996501 31.91914663 16.70150948 31.9361248 C14.80493108 31.96011955 12.90844014 31.9907541 11.01196289 32.02172852 C9.38980614 32.04504494 9.38980614 32.04504494 7.73487854 32.0688324 C5.35131761 31.95463098 5.35131761 31.95463098 4.29882812 33.22705078 C4.1999588 35.33193114 4.17327088 37.44020035 4.17298698 39.54740143 C4.17153354 40.21854003 4.1700801 40.88967863 4.16858262 41.58115476 C4.16489695 43.8582024 4.16842082 46.13518416 4.17184448 48.41223145 C4.17069368 50.04992791 4.16910643 51.68762411 4.16711724 53.32531977 C4.16291836 57.84756155 4.16501711 62.36978239 4.16810346 66.89202428 C4.17035508 71.76051178 4.16687914 76.62899553 4.16412354 81.4974823 C4.15966428 91.04352737 4.16064299 100.5895646 4.16353618 110.13560998 C4.1657896 117.89015605 4.166103 125.64469991 4.16501236 133.39924622 C4.16485913 134.50064042 4.16470589 135.60203461 4.16454802 136.7368044 C4.16422831 138.97388613 4.1639041 141.21096787 4.16357543 143.4480496 C4.16072018 164.45188459 4.16400836 185.45571522 4.16937579 206.45954949 C4.17384387 224.50298309 4.17306795 242.54641026 4.16845703 260.58984375 C4.16311205 281.51574672 4.16099487 302.44164586 4.16406929 323.36754942 C4.16438786 325.59665139 4.16470223 327.82575337 4.16501236 330.05485535 C4.16516664 331.15177142 4.16532091 332.2486875 4.16547986 333.37884346 C4.16634525 341.12893144 4.16488168 348.87901701 4.16253281 356.62910461 C4.15973546 366.06689608 4.16047169 375.50467921 4.16581355 384.94246972 C4.16845145 389.76273947 4.16945414 394.58299533 4.1661644 399.403265 C4.16320324 403.80852731 4.16479121 408.21376271 4.17014195 412.61902255 C4.17126691 414.21994172 4.17067323 415.82086313 4.16826616 417.42178088 C4.16526316 419.58345381 4.1683056 421.74503231 4.17298698 423.90670013 C4.17323051 425.7143051 4.17323051 425.7143051 4.17347896 427.55842733 C3.99504017 430.14764641 3.99504017 430.14764641 5.29882812 431.22705078 C7.62607313 431.3370333 9.92428763 431.382004 12.25257874 431.38526917 C13.35641951 431.39267613 13.35641951 431.39267613 14.4825601 431.40023273 C16.966968 431.41568277 19.45134993 431.42398853 21.93579102 431.43237305 C23.70931734 431.44194569 25.48284135 431.45195539 27.25636292 431.46237183 C32.08671343 431.48949356 36.91707379 431.51046364 41.7474587 431.53037381 C46.78970096 431.55218869 51.83191263 431.57959931 56.87413025 431.60643005 C66.42930822 431.65641796 75.98450311 431.70133409 85.53971428 431.74445242 C96.41500418 431.79377279 107.2902634 431.84871014 118.16552365 431.90413201 C140.54326341 432.01804563 162.92103291 432.12466489 185.29882812 432.22705078 C185.29882812 442.12705078 185.29882812 452.02705078 185.29882812 462.22705078 C159.60375995 462.31964051 133.90873195 462.39102612 108.21353054 462.43429947 C96.28283955 462.45492596 84.35225411 462.48304836 72.42163086 462.52880859 C62.02307743 462.56867352 51.62460044 462.59448296 41.22597271 462.60340476 C35.71979597 462.60862005 30.21383791 462.62087996 24.70773125 462.64997101 C19.52442866 462.6771345 14.34143471 462.6854938 9.1580677 462.67948151 C7.25656075 462.68058132 5.3550434 462.68852955 3.45359802 462.70387268 C0.85450615 462.72381531 -1.74342504 462.71897461 -4.34254456 462.70806885 C-5.09256243 462.71972021 -5.8425803 462.73137158 -6.61532599 462.74337602 C-12.7486024 462.67395709 -16.89048785 460.79975927 -21.40820312 456.66455078 C-25.67991758 451.10981255 -26.950819 448.0793073 -26.95844078 440.99209118 C-26.96194686 440.25850717 -26.96545293 439.52492316 -26.96906525 438.76910934 C-26.97840938 436.29759223 -26.97344822 433.8263092 -26.96859741 431.3547821 C-26.97233216 429.57027821 -26.97693297 427.78577596 -26.98232806 426.00127631 C-26.99459523 421.08692788 -26.99429323 416.17264733 -26.99193931 411.25828707 C-26.99153208 405.96232142 -27.00256131 400.66637781 -27.01205444 395.37042236 C-27.02868583 384.99057915 -27.03416496 374.61075865 -27.0352792 364.23090323 C-27.03622867 355.79569969 -27.0403339 347.36050367 -27.04668045 338.92530251 C-27.06429876 315.02324113 -27.07351841 291.12119774 -27.0720195 267.21912982 C-27.07193959 265.92986142 -27.07185968 264.64059301 -27.07177734 263.31225586 C-27.07169558 262.02141784 -27.07161382 260.73057983 -27.07152958 259.4006255 C-27.07071653 238.47666496 -27.08985744 217.55277638 -27.11805408 196.62883665 C-27.1467609 175.15730546 -27.16059558 153.68580938 -27.15886652 132.21425849 C-27.15820186 120.15438634 -27.16372771 108.09458962 -27.18522263 96.03473473 C-27.20340547 85.76711899 -27.20780562 75.49961287 -27.19420378 65.23198804 C-27.18765947 59.99165175 -27.18760965 54.75152594 -27.20491028 49.51120949 C-27.22058144 44.71519411 -27.21783849 39.91955716 -27.20034201 35.12355135 C-27.19725895 33.38735162 -27.20095343 31.65112406 -27.21206217 29.91495713 C-27.22615749 27.55602349 -27.21561853 25.19842198 -27.19894981 22.83953381 C-27.19938455 21.52900891 -27.19981929 20.21848402 -27.2002672 18.86824626 C-26.42887217 13.24046341 -23.80160556 8.66310408 -19.45117188 4.91455078 C-18.93039063 4.44404297 -18.40960938 3.97353516 -17.87304688 3.48876953 C-12.38816956 0.30241095 -6.20313703 -0.02124362 0 0 Z " fill="#FDB97E" transform="translate(45.701171875,49.77294921875)"/>
<path d="M0 0 C1.00530762 -0.00287018 2.01061523 -0.00574036 3.04638672 -0.00869751 C5.17464765 -0.01073694 7.30292738 -0.00521556 9.43115234 0.00732422 C12.64855313 0.02324478 15.86467178 0.00754096 19.08203125 -0.01171875 C39.18620385 -0.03399603 56.49166888 2.76819409 71.62329102 17.06396484 C81.86718865 27.31308984 88.81509378 41.384691 88.98077393 55.97520447 C88.97986755 56.76923172 88.97896118 57.56325897 88.97802734 58.38134766 C88.98474457 59.24094589 88.99146179 60.10054413 88.99838257 60.9861908 C89.01724887 63.80335397 89.02128009 66.62027776 89.0234375 69.4375 C89.02987019 71.40709529 89.0365989 73.37668964 89.04360962 75.34628296 C89.05555162 79.46329974 89.0592933 83.58023276 89.05810547 87.69726562 C89.05790173 92.96762128 89.08527413 98.23744103 89.11964989 103.50766945 C89.14189654 107.57063256 89.1459438 111.63346583 89.14488602 115.69648361 C89.14724263 117.63972201 89.15606955 119.58296396 89.17155075 121.52614212 C89.19117816 124.24258303 89.18538708 126.95785613 89.17333984 129.67431641 C89.18457886 130.47239212 89.19581787 131.27046783 89.20739746 132.09272766 C89.14871928 137.30758355 88.21906323 140.3244691 84.6875 144.3984375 C79.80055629 148.65079579 76.01438659 148.9621382 69.83642578 148.85253906 C68.53300987 148.85341522 68.53300987 148.85341522 67.20326233 148.85430908 C64.34603196 148.85153395 61.48985945 148.82046926 58.6328125 148.7890625 C56.64599172 148.78159807 54.65916355 148.77590609 52.67233276 148.77191162 C47.45417803 148.75667122 42.23647174 148.71740296 37.01849365 148.6730957 C31.68947414 148.63210871 26.36038185 148.61389327 21.03125 148.59375 C10.58313678 148.55090732 0.13535575 148.48267515 -10.3125 148.3984375 C-10.4990213 147.35578735 -10.6855426 146.31313721 -10.87771606 145.2388916 C-14.78774988 123.38840286 -18.73357732 101.54561042 -22.77636719 79.71923828 C-23.34949279 76.62293907 -23.9209284 73.52633153 -24.4921875 70.4296875 C-24.66193085 69.51634644 -24.83167419 68.60300537 -25.00656128 67.6619873 C-27.19761009 55.77448635 -28.30059137 46.23242694 -24.6875 34.5859375 C-24.41752197 33.68955566 -24.14754395 32.79317383 -23.86938477 31.86962891 C-23.30463356 29.99476627 -22.7359817 28.12107448 -22.16357422 26.24853516 C-21.31501738 23.40686775 -20.52694414 20.55445482 -19.75390625 17.69140625 C-19.25262312 15.88541141 -18.75132171 14.07942163 -18.25 12.2734375 C-18.02940918 11.42676514 -17.80881836 10.58009277 -17.58154297 9.70776367 C-17.35740723 8.92248291 -17.13327148 8.13720215 -16.90234375 7.328125 C-16.71534912 6.63960449 -16.52835449 5.95108398 -16.33569336 5.24169922 C-12.93023738 -0.89315943 -6.10333975 -0.03854862 0 0 Z " fill="#B3D9FD" transform="translate(404.3125,363.6015625)"/>
<path d="M0 0 C1.05960938 -0.00386719 2.11921875 -0.00773438 3.2109375 -0.01171875 C4.31695312 -0.00011719 5.42296875 0.01148438 6.5625 0.0234375 C8.22152344 0.00603516 8.22152344 0.00603516 9.9140625 -0.01171875 C10.97367187 -0.00785156 12.03328125 -0.00398437 13.125 0 C14.58099609 0.00507568 14.58099609 0.00507568 16.06640625 0.01025391 C18.5625 0.3984375 18.5625 0.3984375 20.38134766 1.77490234 C22.00379307 4.00501025 21.89685812 5.66730334 21.9375 8.3984375 C22.06399995 11.03374257 22.06399995 11.03374257 22.5625 13.3984375 C24.84739247 15.57184837 24.84739247 15.57184837 27.5625 16.3984375 C28.2225 16.7284375 28.8825 17.0584375 29.5625 17.3984375 C32.93607334 17.89914071 32.93607334 17.89914071 36.5625 17.3984375 C38.24961423 15.7524724 39.9170622 14.08606601 41.5625 12.3984375 C44.19140625 11.765625 44.19140625 11.765625 47.5625 12.3984375 C50.68507888 14.62067856 53.27678518 17.27611713 55.9375 20.0234375 C56.67355469 20.73628906 57.40960938 21.44914062 58.16796875 22.18359375 C63.38609919 27.45981099 63.38609919 27.45981099 64.1953125 31.765625 C63.33050613 35.36364656 61.14409877 36.81683873 58.5625 39.3984375 C57.68942354 44.41862714 59.31805427 47.99587088 61.5625 52.3984375 C64.63103538 53.93270519 67.85837921 53.78783623 71.25 54.01953125 C73.5625 54.3984375 73.5625 54.3984375 75.5625 56.3984375 C76.02065988 60.52594898 75.88650858 64.68594518 75.875 68.8359375 C75.89111328 69.99416016 75.90722656 71.15238281 75.92382812 72.34570312 C75.92447266 73.45494141 75.92511719 74.56417969 75.92578125 75.70703125 C75.92876221 76.72595459 75.93174316 77.74487793 75.93481445 78.79467773 C75.5625 81.3984375 75.5625 81.3984375 74.18603516 83.23974609 C71.94998882 84.83557706 70.34255424 84.63088952 67.625 84.5859375 C63.87734911 84.81560582 63.87734911 84.81560582 60.984375 86.98828125 C59.05175397 90.53368814 58.5625 93.0835704 58.5625 97.1484375 C59.30472852 100.46233883 59.30472852 100.46233883 61.625 102.4609375 C63.5625 104.3984375 63.5625 104.3984375 64.1640625 106.99609375 C63.21717366 112.35154946 59.69590418 115.09552625 55.875 118.7734375 C55.15376953 119.50949219 54.43253906 120.24554688 53.68945312 121.00390625 C48.29122029 126.31833091 48.29122029 126.31833091 44.92626953 126.68823242 C41.98791467 126.32799412 41.13750632 125.45461921 39.125 123.3359375 C36.331334 120.69970079 36.331334 120.69970079 32.5 120.3359375 C27.13137342 122.17205953 27.13137342 122.17205953 22.5625 125.3984375 C22.31900989 127.91450199 22.17886634 130.42929774 22.0390625 132.953125 C21.47147783 135.86548569 20.89416826 136.61248558 18.5625 138.3984375 C14.78084836 139.03818333 10.95466925 138.86170286 7.125 138.8359375 C6.07505859 138.85591797 5.02511719 138.87589844 3.94335938 138.89648438 C2.93208984 138.89583984 1.92082031 138.89519531 0.87890625 138.89453125 C-0.50639282 138.89731079 -0.50639282 138.89731079 -1.91967773 138.90014648 C-5.18745997 138.24899818 -6.38878526 136.97273719 -8.4375 134.3984375 C-8.765625 131.9609375 -8.765625 131.9609375 -8.6875 129.3984375 C-8.8532339 125.6616574 -8.8532339 125.6616574 -11.09375 122.859375 C-14.67925683 120.9997278 -18.44104575 119.37370564 -22.4375 120.3984375 C-24.26920615 121.90715138 -25.94882618 123.4727178 -27.59375 125.18359375 C-29.4375 126.3984375 -29.4375 126.3984375 -31.80126953 126.18823242 C-36.52235308 124.77383112 -39.41362573 121.07749715 -42.8125 117.6484375 C-43.93591797 116.57335937 -43.93591797 116.57335937 -45.08203125 115.4765625 C-46.13583984 114.4246875 -46.13583984 114.4246875 -47.2109375 113.3515625 C-47.85466309 112.71379883 -48.49838867 112.07603516 -49.16162109 111.41894531 C-50.4375 109.3984375 -50.4375 109.3984375 -50.30322266 106.83105469 C-49.4375 104.3984375 -49.4375 104.3984375 -46.8125 101.5234375 C-44.08453476 98.58818949 -44.08453476 98.58818949 -44.4375 94.8984375 C-44.7675 93.7434375 -45.0975 92.5884375 -45.4375 91.3984375 C-45.746875 90.2846875 -46.05625 89.1709375 -46.375 88.0234375 C-48.13683602 85.20295536 -48.13683602 85.20295536 -50.75390625 84.91015625 C-52.51997421 84.77905077 -54.29159001 84.7071246 -56.0625 84.69921875 C-58.4375 84.3984375 -58.4375 84.3984375 -60.06323242 83.23535156 C-61.97854129 80.67525494 -61.81007004 78.88203851 -61.80078125 75.70703125 C-61.79981445 74.04317383 -61.79981445 74.04317383 -61.79882812 72.34570312 C-61.78271484 71.18748047 -61.76660156 70.02925781 -61.75 68.8359375 C-61.75322266 67.67384766 -61.75644531 66.51175781 -61.75976562 65.31445312 C-61.70441946 56.66535696 -61.70441946 56.66535696 -59.4375 54.3984375 C-56.6171875 53.984375 -56.6171875 53.984375 -53.3125 53.7734375 C-52.21679688 53.69867188 -51.12109375 53.62390625 -49.9921875 53.546875 C-49.14914063 53.49789062 -48.30609375 53.44890625 -47.4375 53.3984375 C-44.56717388 46.53591745 -44.56717388 46.53591745 -44.4375 39.3984375 C-45.95416834 37.83892542 -47.50512518 36.45695125 -49.22265625 35.12109375 C-50.4375 33.3984375 -50.4375 33.3984375 -50.53515625 30.6640625 C-48.98692134 26.0579259 -46.24361743 23.43603265 -42.8125 20.0859375 C-42.20792969 19.45365234 -41.60335937 18.82136719 -40.98046875 18.16992188 C-37.90441986 15.11026983 -35.93612211 13.54604216 -31.703125 12.29296875 C-28.4375 12.3984375 -28.4375 12.3984375 -26.3984375 13.6484375 C-25.87507813 14.2259375 -25.35171875 14.8034375 -24.8125 15.3984375 C-22.33677364 17.95829197 -22.33677364 17.95829197 -18.9375 18.4609375 C-17.7 17.935 -17.7 17.935 -16.4375 17.3984375 C-15.82261719 17.14835937 -15.20773438 16.89828125 -14.57421875 16.640625 C-12.84733295 15.92772224 -11.14057363 15.16649031 -9.4375 14.3984375 C-9.40011719 13.63917969 -9.36273438 12.87992188 -9.32421875 12.09765625 C-9.25847656 11.10378906 -9.19273437 10.10992187 -9.125 9.0859375 C-9.03798828 7.60673828 -9.03798828 7.60673828 -8.94921875 6.09765625 C-7.92821216 0.71204131 -5.12636414 0.01787079 0 0 Z " fill="#A79BA7" transform="translate(191.4375,134.6015625)"/>
<path d="M0 0 C2.125 0.0625 2.125 0.0625 5 1 C6.28125 2.37890625 6.28125 2.37890625 7.625 4.125 C14.27927201 12.41724666 24.33049653 17.09063146 34.77148438 18.32861328 C37.55770301 18.51089381 40.33376688 18.61889525 43.125 18.6875 C44.08148438 18.72166016 45.03796875 18.75582031 46.0234375 18.79101562 C48.34884073 18.87240474 50.67391876 18.94189612 53 19 C53.53596571 45.07816769 53.06668232 66.75301695 36 88 C35.08154297 89.22396484 35.08154297 89.22396484 34.14453125 90.47265625 C22.81058446 103.8297848 5.18073321 111.7876318 -12 114 C-31.72323873 115.60037198 -50.85261393 111.13027765 -66.3515625 98.40625 C-66.89554687 97.9421875 -67.43953125 97.478125 -68 97 C-68.56460937 96.5771875 -69.12921875 96.154375 -69.7109375 95.71875 C-83.56843254 84.93373124 -91.95489592 66.50155956 -94.54150391 49.42504883 C-95.11649013 44.62243844 -95.12607617 39.8625806 -95.09765625 35.03125 C-95.0962413 34.11033569 -95.09482635 33.18942139 -95.09336853 32.24060059 C-95.08781407 29.32703266 -95.07527025 26.41354432 -95.0625 23.5 C-95.05747911 21.51302195 -95.05291723 19.52604269 -95.04882812 17.5390625 C-95.0378596 12.69267812 -95.02062683 7.84635251 -95 3 C-94.67 3 -94.34 3 -94 3 C-94 8.28 -94 13.56 -94 19 C-85.69751796 18.93683273 -77.395426 18.8612135 -69.09327888 18.76428509 C-65.23733781 18.71975149 -61.38149827 18.68045917 -57.52539062 18.65356445 C-53.79691451 18.62736005 -50.06883272 18.5868402 -46.34060287 18.53681374 C-44.92546406 18.52025985 -43.51025722 18.50867468 -42.09503555 18.50238609 C-27.90586934 18.43301848 -15.62497543 15.91664374 -5 6 C-3.25262159 4.04975971 -1.62564158 2.05595847 0 0 Z " fill="#FEDECE" transform="translate(383,258)"/>
<path d="M0 0 C1.15725586 0.00821777 2.31451172 0.01643555 3.50683594 0.02490234 C22.67808108 0.27637284 37.288926 4.618195 52.25 17.25 C52.90484375 17.79140625 53.5596875 18.3328125 54.234375 18.890625 C66.37819218 29.92033051 73.92389582 47.12534193 75.25 63.25 C75.43646805 68.58498869 75.37188066 73.91433545 75.25 79.25 C71.9585089 79.33857863 68.66733195 79.3909104 65.375 79.4375 C64.4571875 79.46263672 63.539375 79.48777344 62.59375 79.51367188 C51.18671777 79.63416869 42.26359083 76.2300368 33.25 69.25 C30.70866273 66.72631091 28.41817306 64.0989646 26.25 61.25 C21.28060826 62.01327259 20.34657905 63.2932601 17.25 67.25 C8.39934607 75.39041627 -1.27307024 79.38684841 -13.28442383 79.36352539 C-14.58539505 79.36344986 -15.88636627 79.36337433 -17.22676086 79.36329651 C-18.63685139 79.35819062 -20.04694151 79.35297464 -21.45703125 79.34765625 C-22.90720063 79.34578979 -24.35737065 79.34436696 -25.80754089 79.34336853 C-29.61332966 79.3395613 -33.41907991 79.32974642 -37.22485352 79.31866455 C-41.11278767 79.30841177 -45.00072808 79.30386264 -48.88867188 79.29882812 C-56.50913209 79.28812246 -64.12956064 79.2710677 -71.75 79.25 C-71.8106199 75.76309802 -71.8467892 72.27633429 -71.87890625 68.7890625 C-71.89618774 67.81203369 -71.91346924 66.83500488 -71.93127441 65.82836914 C-72.04984468 48.61771549 -64.7446427 33.89542093 -53 21.49609375 C-37.98805216 6.51020832 -21.11775369 -0.18031078 0 0 Z " fill="#685E68" transform="translate(360.75,197.75)"/>
<path d="M0 0 C9.57 0 19.14 0 29 0 C29.375 12.3125 29.375 12.3125 29.47802734 16.18481445 C29.5136377 17.1924585 29.54924805 18.20010254 29.5859375 19.23828125 C29.63306885 20.7857605 29.63306885 20.7857605 29.68115234 22.36450195 C29.82674629 25.22843236 29.82674629 25.22843236 32 28 C34.44003804 28.30708631 36.63008134 28.41578478 39.07400513 28.39872742 C39.8107534 28.40537424 40.54750168 28.41202107 41.30657566 28.41886932 C43.78801824 28.43759841 46.26898285 28.43488747 48.75048828 28.43237305 C50.52416673 28.44138419 52.29783893 28.4517098 54.07150269 28.46325684 C58.89769287 28.49092918 63.72376524 28.50012518 68.55002451 28.50611091 C73.5896211 28.51546805 78.62912874 28.54166916 83.66867065 28.56611633 C93.21673128 28.60985847 102.76477472 28.63835798 112.31290519 28.66143972 C123.18099406 28.68845013 134.04899379 28.73236412 144.91701913 28.77772844 C167.2779664 28.87068517 189.63893781 28.94171569 212 29 C212 38.9 212 48.8 212 59 C186.30493182 59.09258973 160.60990382 59.16397533 134.91470242 59.20724869 C122.98401142 59.22787517 111.05342598 59.25599758 99.12280273 59.30175781 C88.7242493 59.34162274 78.32577231 59.36743218 67.92714459 59.37635398 C62.42096785 59.38156927 56.91500979 59.39382918 51.40890312 59.42292023 C46.22560053 59.45008372 41.04260658 59.45844302 35.85923958 59.45243073 C33.95773262 59.45353053 32.05621527 59.46147877 30.1547699 59.4768219 C27.55567802 59.49676453 24.95774683 59.49192383 22.35862732 59.48101807 C21.60860945 59.49266943 20.85859157 59.5043208 20.08584589 59.51632524 C13.95256948 59.44690631 9.81068402 57.57270849 5.29296875 53.4375 C1.92984711 49.06425348 -0.25842319 45.99932824 -0.22705078 40.41503906 C-0.22689972 39.51440735 -0.22674866 38.61377563 -0.22659302 37.68585205 C-0.21627045 36.72217712 -0.20594788 35.7585022 -0.1953125 34.765625 C-0.1924826 33.77246277 -0.18965271 32.77930054 -0.18673706 31.75604248 C-0.17555143 28.58723856 -0.15044962 25.41871835 -0.125 22.25 C-0.11496812 20.1002645 -0.10584263 17.95052457 -0.09765625 15.80078125 C-0.07731986 10.5336572 -0.03816772 5.2671458 0 0 Z " fill="#FDA95D" transform="translate(19,453)"/>
<path d="M0 0 C10.34475169 1.79791352 19.04303527 10.71677532 25 19 C31.33601247 29.53266322 35.30467485 39.58899062 35.29052734 51.98291016 C35.29724457 52.84250839 35.30396179 53.70210663 35.31088257 54.5877533 C35.32974887 57.40491647 35.33378009 60.22184026 35.3359375 63.0390625 C35.34237019 65.00865779 35.3490989 66.97825214 35.35610962 68.94784546 C35.36805162 73.06486224 35.3717933 77.18179526 35.37060547 81.29882812 C35.37040173 86.56918378 35.39777413 91.83900353 35.43214989 97.10923195 C35.45439654 101.17219506 35.4584438 105.23502833 35.45738602 109.29804611 C35.45974263 111.24128451 35.46856955 113.18452646 35.48405075 115.12770462 C35.50367816 117.84414553 35.49788708 120.55941863 35.48583984 123.27587891 C35.49707886 124.07395462 35.50831787 124.87203033 35.51989746 125.69429016 C35.46121928 130.90914605 34.53156323 133.9260316 31 138 C26.11305629 142.25235829 22.32688659 142.5637007 16.14892578 142.45410156 C14.84550987 142.45497772 14.84550987 142.45497772 13.51576233 142.45587158 C10.65853196 142.45309645 7.80235945 142.42203176 4.9453125 142.390625 C2.95849172 142.38316057 0.97166355 142.37746859 -1.01516724 142.37347412 C-6.23332197 142.35823372 -11.45102826 142.31896546 -16.66900635 142.2746582 C-21.99802586 142.23367121 -27.32711815 142.21545577 -32.65625 142.1953125 C-43.10439495 142.15246969 -53.55208995 142.08213269 -64 142 C-65.65 132.1 -67.3 122.2 -69 112 C-62.37357422 111.94392578 -62.37357422 111.94392578 -55.61328125 111.88671875 C-52.08534562 111.84859811 -48.55747178 111.80752541 -45.02959442 111.7644577 C-41.30856894 111.71984097 -37.58765492 111.68039683 -33.86645508 111.65356445 C-30.28063327 111.62750722 -26.69523181 111.58708857 -23.10967064 111.53681374 C-21.74343288 111.52016121 -20.37712244 111.50863685 -19.0107975 111.50238609 C-17.09342502 111.49272839 -15.17618611 111.4629542 -13.2590332 111.43237305 C-12.16871292 111.42126999 -11.07839264 111.41016693 -9.95503235 111.39872742 C-6.60910341 110.94725568 -4.7045463 109.99041182 -2 108 C-0.83993634 105.67987269 -0.86316148 104.31923037 -0.84178162 101.73532104 C-0.8319928 100.84067139 -0.82220398 99.94602173 -0.81211853 99.02426147 C-0.80636307 98.04027374 -0.8006076 97.05628601 -0.79467773 96.04248047 C-0.78477814 95.00830994 -0.77487854 93.9741394 -0.76467896 92.90863037 C-0.73300162 89.47817299 -0.70828189 86.04770173 -0.68359375 82.6171875 C-0.66302961 80.24349602 -0.64203328 77.86980825 -0.62062073 75.49612427 C-0.56534433 69.23914588 -0.51595963 62.98213413 -0.46777344 56.72509766 C-0.41759902 50.34404522 -0.3618918 43.96304139 -0.30664062 37.58203125 C-0.19899096 25.05472928 -0.09737338 12.52738584 0 0 Z " fill="#8AC9FD" transform="translate(458,370)"/>
<path d="M0 0 C0.78503906 0.20496094 1.57007813 0.40992188 2.37890625 0.62109375 C3.42949219 0.89050781 4.48007812 1.15992188 5.5625 1.4375 C6.59503906 1.70433594 7.62757813 1.97117187 8.69140625 2.24609375 C24.34762609 5.81356769 38.692859 4.01029191 54 0 C52.51479025 6.8788662 50.83861605 13.69080949 49.0625 20.5 C48.81048828 21.48097656 48.55847656 22.46195312 48.29882812 23.47265625 C47.13350287 27.94917423 45.91253077 32.31629593 44.30859375 36.65625 C41.20048809 45.9251201 43.69968247 55.31712309 45.375 64.6875 C45.63403115 66.17074641 45.89264335 67.65406604 46.15087891 69.13745117 C47.90447644 79.13861265 49.76013571 89.12064598 51.625 99.1015625 C51.85128082 100.31461563 52.07756165 101.52766876 52.31069946 102.77748108 C53.44762677 108.86790366 54.59156606 114.95686768 55.74755859 121.04370117 C56.17298391 123.30645299 56.59828259 125.56922861 57.0234375 127.83203125 C57.22316162 128.8712674 57.42288574 129.91050354 57.62866211 130.98123169 C57.80969482 131.95011322 57.99072754 132.91899475 58.17724609 133.91723633 C58.41657364 135.17785637 58.41657364 135.17785637 58.66073608 136.46394348 C59 139 59 139 59 145 C37.55 145 16.1 145 -6 145 C-0.3609609 112.29357321 -0.3609609 112.29357321 2.56884766 96.80187988 C4.9610062 84.13302245 7.34062169 71.4609091 9.5 58.75 C9.65992432 57.82985107 9.81984863 56.90970215 9.98461914 55.96166992 C11.30019031 48.03701047 11.16520413 41.50147179 8.875 33.8125 C8.65561768 33.04728027 8.43623535 32.28206055 8.21020508 31.49365234 C6.95809471 27.1565626 5.64953909 22.83713812 4.33203125 18.51953125 C4.0582666 17.61936279 3.78450195 16.71919434 3.50244141 15.79174805 C2.96791842 14.04261844 2.42742694 12.29529927 1.88037109 10.55004883 C1.63496582 9.75236084 1.38956055 8.95467285 1.13671875 8.1328125 C0.91717529 7.43043457 0.69763184 6.72805664 0.47143555 6.00439453 C0 4 0 4 0 0 Z " fill="#CA97E7" transform="translate(335,367)"/>
<path d="M0 0 C9.49295687 -0.06795868 18.98575039 -0.12292122 28.47889614 -0.15543652 C32.88763453 -0.17104751 37.29619688 -0.19220165 41.70483398 -0.22631836 C45.96478553 -0.25907562 50.22456846 -0.27688731 54.48463631 -0.28463173 C56.10442824 -0.29014601 57.72421166 -0.30091365 59.3439312 -0.31719017 C79.80108493 -0.5144621 79.80108493 -0.5144621 86.875 5.75 C87.40867187 6.19859375 87.94234375 6.6471875 88.4921875 7.109375 C93.82957223 13.80184705 93.41314681 20.80531426 93.34057617 29.00366211 C93.34123329 30.95103271 93.34123329 30.95103271 93.34190369 32.93774414 C93.3427611 36.48073124 93.32517688 40.02341092 93.30418181 43.56632686 C93.28537242 47.27520467 93.28366123 50.98409027 93.28010559 54.69300842 C93.2707976 61.70874607 93.24620081 68.72434274 93.21605712 75.74001843 C93.1824742 83.73033528 93.16601734 91.72065902 93.15097082 99.71102893 C93.11965002 116.14078139 93.06465368 132.57033976 93 149 C83.1 148.67 73.2 148.34 63 148 C62.97494385 144.5570752 62.9498877 141.11415039 62.92407227 137.56689453 C62.84074691 126.21534739 62.75209206 114.86384611 62.66066074 103.51236153 C62.60533509 96.62723626 62.55185418 89.74210581 62.50268555 82.85693359 C62.45526606 76.21741797 62.40274617 69.57795555 62.34705925 62.93850327 C62.32661509 60.40028065 62.30790549 57.86204347 62.29092598 55.32379532 C62.26692756 51.77977462 62.23686678 48.23585494 62.20532227 44.69189453 C62.19668907 43.10370407 62.19668907 43.10370407 62.18788147 41.48342896 C62.17319824 40.04048462 62.17319824 40.04048462 62.15821838 38.56838989 C62.15176583 37.72955828 62.14531328 36.89072666 62.1386652 36.02647591 C62.12595614 33.93098702 62.12595614 33.93098702 61 32 C30.805 31.505 30.805 31.505 0 31 C0 20.77 0 10.54 0 0 Z " fill="#FDA95C" transform="translate(285,50)"/>
<path d="M0 0 C7.59 0 15.18 0 23 0 C23.11501757 5.73043074 23.21448235 11.45683305 23.2746582 17.1875 C23.29974946 19.13522943 23.33383061 21.0828652 23.37719727 23.03027344 C23.43808749 25.8355219 23.46626331 28.63952208 23.48828125 31.4453125 C23.51408768 32.31116974 23.5398941 33.17702698 23.56648254 34.06912231 C23.56843746 38.31588005 23.34765316 41.13826923 20.65698242 44.53466797 C16.73891134 48.17012527 13.9159761 48.12782994 8.75724792 48.14717102 C7.44918686 48.15432632 6.14112579 48.16148163 4.79342651 48.16885376 C3.3403933 48.171694 1.88735984 48.17440573 0.43432617 48.17700195 C-1.09330907 48.18326724 -2.62094278 48.1899141 -4.14857483 48.19691467 C-9.16804952 48.21794761 -14.1875245 48.22831552 -19.20703125 48.23828125 C-20.93515222 48.24232893 -22.66327302 48.24644585 -24.39139366 48.25063133 C-32.50935536 48.26968038 -40.62730797 48.28391268 -48.74528772 48.2922433 C-58.11633814 48.30201866 -67.48715254 48.32834707 -76.85811979 48.36874419 C-84.10152825 48.3988984 -91.34486902 48.41371147 -98.58833903 48.41702431 C-102.91458303 48.41937538 -107.2405748 48.42834319 -111.56675148 48.45348549 C-115.63716033 48.47675953 -119.70715074 48.48100231 -123.77760887 48.47072411 C-125.26994595 48.47022849 -126.76230358 48.47655674 -128.25457764 48.49028015 C-130.29507406 48.50799249 -132.33575209 48.49850978 -134.376297 48.48774719 C-136.08775264 48.49132972 -136.08775264 48.49132972 -137.83378315 48.49498463 C-142.26454242 47.80231011 -145.57846507 45.8033186 -148.3671875 42.265625 C-149.33971821 38.78372492 -149.2072475 35.33092954 -149.125 31.75 C-149.11597656 31.00492188 -149.10695313 30.25984375 -149.09765625 29.4921875 C-149.07418358 27.66131941 -149.03831525 25.83061762 -149 24 C-148.26762525 23.99945523 -147.53525049 23.99891047 -146.78068256 23.99834919 C-128.96179052 23.98338302 -111.14315792 23.94094299 -93.32440662 23.86790943 C-84.70737183 23.83325366 -76.09049711 23.80790315 -67.47338867 23.80444336 C-59.96284576 23.80140427 -52.45258787 23.7809214 -44.94215506 23.73947543 C-40.96520995 23.71813845 -36.98867012 23.7055482 -33.01166725 23.71384621 C-29.26776911 23.72138224 -25.52469241 23.70558329 -21.78094482 23.67193985 C-19.75301704 23.65977439 -17.72498818 23.67230228 -15.69706726 23.68556213 C-8.61431066 23.87113203 -8.61431066 23.87113203 -2.68530273 20.59753418 C-0.98815971 17.98175072 -0.35936011 16.65035185 -0.29296875 13.57421875 C-0.26485107 12.85580811 -0.2367334 12.13739746 -0.20776367 11.3972168 C-0.19773315 10.05590698 -0.19773315 10.05590698 -0.1875 8.6875 C-0.125625 5.820625 -0.06375 2.95375 0 0 Z " fill="#FED405" transform="translate(261,51)"/>
<path d="M0 0 C0.59280762 0.13712402 1.18561523 0.27424805 1.79638672 0.41552734 C8.26220818 1.82146906 14.52081453 2.40238701 21.125 2.625 C22.55972656 2.68300781 22.55972656 2.68300781 24.0234375 2.7421875 C26.34878199 2.83520128 28.67414335 2.92103771 31 3 C31.53596571 29.07816769 31.06668232 50.75301695 14 72 C13.08154297 73.22396484 13.08154297 73.22396484 12.14453125 74.47265625 C0.81058446 87.8297848 -16.81926679 95.7876318 -34 98 C-54.70934295 99.68038589 -72.40360509 94.27619933 -89 82 C-85.37973448 80.79324483 -82.40528297 81.21762786 -78.6875 81.5625 C-58.25946236 83.1073414 -39.98297653 76.51575865 -24.49609375 63.26953125 C-5.85974935 46.32474863 -1.3817993 24.25421403 0 0 Z " fill="#FECEBF" transform="translate(405,274)"/>
<path d="M0 0 C4.51030586 1.35506536 7.18538682 4.69481916 10.43481445 7.9753418 C11.12768555 8.63598633 11.82055664 9.29663086 12.53442383 9.97729492 C17.4596841 14.89285025 17.4596841 14.89285025 18.2277832 19.11987305 C17.40122297 22.76207071 15.22610941 24.18404684 12.62231445 26.7878418 C11.74923799 31.80803143 13.37786873 35.38527518 15.62231445 39.7878418 C18.69084983 41.32210949 21.91819367 41.17724052 25.30981445 41.40893555 C27.62231445 41.7878418 27.62231445 41.7878418 29.62231445 43.7878418 C30.08047434 47.91535327 29.94632303 52.07534947 29.93481445 56.2253418 C29.95092773 57.38356445 29.96704102 58.54178711 29.98364258 59.73510742 C29.98428711 60.8443457 29.98493164 61.95358398 29.9855957 63.09643555 C29.98857666 64.11535889 29.99155762 65.13428223 29.99462891 66.18408203 C29.62231445 68.7878418 29.62231445 68.7878418 28.24584961 70.62915039 C26.00980327 72.22498136 24.40236869 72.02029382 21.68481445 71.9753418 C17.93716356 72.20501012 17.93716356 72.20501012 15.04418945 74.37768555 C13.11156842 77.92309244 12.62231445 80.47297469 12.62231445 84.5378418 C13.36454298 87.85174313 13.36454298 87.85174313 15.68481445 89.8503418 C17.62231445 91.7878418 17.62231445 91.7878418 18.22387695 94.38549805 C17.27698811 99.74095376 13.75571863 102.48493055 9.93481445 106.1628418 C9.21358398 106.89889648 8.49235352 107.63495117 7.74926758 108.39331055 C2.35103474 113.7077352 2.35103474 113.7077352 -1.01391602 114.07763672 C-3.95227088 113.71739842 -4.80267923 112.84402351 -6.81518555 110.7253418 C-9.60885155 108.08910508 -9.60885155 108.08910508 -13.44018555 107.7253418 C-18.80881213 109.56146383 -18.80881213 109.56146383 -23.37768555 112.7878418 C-23.62117566 115.30390629 -23.7613192 117.81870203 -23.90112305 120.3425293 C-24.46870772 123.25488999 -25.04601728 124.00188988 -27.37768555 125.7878418 C-31.15933719 126.42758763 -34.98551629 126.25110716 -38.81518555 126.2253418 C-39.86512695 126.24532227 -40.91506836 126.26530273 -41.99682617 126.28588867 C-43.51373047 126.28492188 -43.51373047 126.28492188 -45.0612793 126.28393555 C-46.44657837 126.28671509 -46.44657837 126.28671509 -47.85986328 126.28955078 C-51.12914105 125.63810447 -52.32257259 124.35879991 -54.37768555 121.7878418 C-54.8815918 119.2800293 -54.8815918 119.2800293 -54.94018555 116.6628418 C-54.94447045 114.08441887 -54.94447045 114.08441887 -55.37768555 111.7878418 C-56.36768555 111.1278418 -57.35768555 110.4678418 -58.37768555 109.7878418 C-58.37768555 109.1278418 -58.37768555 108.4678418 -58.37768555 107.7878418 C-57.33870117 107.54549805 -56.2997168 107.3031543 -55.22924805 107.0534668 C-42.81588753 104.09996365 -32.5897372 100.74145895 -22.37768555 92.7878418 C-21.61456055 92.20260742 -20.85143555 91.61737305 -20.06518555 91.0144043 C-9.69724155 82.48245038 -3.36834177 71.49534318 0.62231445 58.7878418 C1.09991211 57.34151367 1.09991211 57.34151367 1.5871582 55.8659668 C6.98545144 37.45704055 2.46479675 19.75845924 -5.37768555 2.7878418 C-3.59715359 0.4450366 -3.01880753 -0.2693648 0 0 Z " fill="#918391" transform="translate(237.377685546875,147.212158203125)"/>
<path d="M0 0 C34.32 0 68.64 0 104 0 C99 29 99 29 98 30 C94.95597578 30.09530981 91.93468292 30.12551639 88.89038086 30.11352539 C87.93438492 30.11367142 86.97838898 30.11381744 85.99342346 30.1139679 C82.81720755 30.11326835 79.64104948 30.10547403 76.46484375 30.09765625 C74.26908907 30.09579222 72.07333398 30.09436825 69.87757874 30.09336853 C64.08579367 30.08954219 58.2940335 30.07971091 52.5022583 30.06866455 C46.59721209 30.05845293 40.69216187 30.05387145 34.78710938 30.04882812 C23.19139352 30.03808874 11.59570272 30.02049101 0 30 C0 20.1 0 10.2 0 0 Z " fill="#8AC9FD" transform="translate(231,482)"/>
<path d="M0 0 C13.3373448 0.2667469 25.1063347 9.38346697 34.33203125 18.23828125 C47.90079291 32.36181341 54.29468326 49.91624629 54.0625 69.4375 C54.05798828 70.16904297 54.05347656 70.90058594 54.04882812 71.65429688 C54.03718148 73.43623419 54.01925191 75.21812863 54 77 C50.7085089 77.08857863 47.41733195 77.1409104 44.125 77.1875 C43.2071875 77.21263672 42.289375 77.23777344 41.34375 77.26367188 C34.73696406 77.33346187 29.20867002 76.24534805 23 74 C22.9906543 73.20529297 22.98130859 72.41058594 22.97167969 71.59179688 C22.58058004 45.10438174 19.94634953 22.85056313 1.3203125 2.53125 C0 1 0 1 0 0 Z " fill="#554E56" transform="translate(382,200)"/>
<path d="M0 0 C0.95708359 0.00222061 1.91416718 0.00444122 2.9002533 0.00672913 C3.98129837 0.00680466 5.06234344 0.00688019 6.17614746 0.00695801 C7.94018166 0.01469994 7.94018166 0.01469994 9.73985291 0.02259827 C10.93702438 0.02401321 12.13419586 0.02542816 13.36764526 0.02688599 C17.20918732 0.03250472 21.05067208 0.04506041 24.89219666 0.05775452 C27.48920102 0.0627671 30.0862063 0.06733043 32.68321228 0.07142639 C39.06539344 0.08248024 45.44754096 0.0992366 51.82969666 0.12025452 C53.34318658 5.29648374 54.5307044 10.37922752 55.45469666 15.68275452 C55.65579041 16.77620178 55.65579041 16.77620178 55.86094666 17.89173889 C55.98727478 18.60781311 56.11360291 19.32388733 56.24375916 20.06166077 C56.35671326 20.69789368 56.46966736 21.33412659 56.58604431 21.98963928 C56.89410853 24.68350347 56.82969666 27.40883278 56.82969666 30.12025452 C35.37969666 30.12025452 13.92969666 30.12025452 -8.17030334 30.12025452 C-3.00587198 0.16655261 -3.00587198 0.16655261 0 0 Z " fill="#BC80E1" transform="translate(337.17030334472656,481.87974548339844)"/>
<path d="M0 0 C0.78503906 0.20496094 1.57007813 0.40992188 2.37890625 0.62109375 C3.42949219 0.89050781 4.48007812 1.15992188 5.5625 1.4375 C6.59503906 1.70433594 7.62757813 1.97117187 8.69140625 2.24609375 C24.34762609 5.81356769 38.692859 4.01029191 54 0 C52.51479025 6.8788662 50.83861605 13.69080949 49.0625 20.5 C48.81048828 21.48097656 48.55847656 22.46195312 48.29882812 23.47265625 C46.92779319 28.73939404 45.43585167 33.90875997 43.61572266 39.03881836 C42.68514761 42.00285854 42.32812535 44.91562167 42 48 C41.67 47.34 41.34 46.68 41 46 C31.43 46 21.86 46 12 46 C11.13375 42.7825 10.2675 39.565 9.375 36.25 C7.02681018 27.56274479 4.53218545 18.93256754 1.82958984 10.34863281 C1.58934082 9.57100586 1.3490918 8.79337891 1.1015625 7.9921875 C0.88838379 7.31526855 0.67520508 6.63834961 0.45556641 5.94091797 C0 4 0 4 0 0 Z " fill="#D8B1ED" transform="translate(335,367)"/>
<path d="M0 0 C1.34788101 -0.01702469 1.34788101 -0.01702469 2.72299194 -0.03439331 C4.19043098 -0.02999741 4.19043098 -0.02999741 5.68751526 -0.0255127 C6.72369995 -0.03398224 7.75988464 -0.04245178 8.82746887 -0.05117798 C12.25563298 -0.07459356 15.68334947 -0.07556904 19.11158752 -0.07434082 C21.49286072 -0.08143949 23.87413221 -0.08913806 26.25540161 -0.09741211 C31.24795791 -0.11086734 36.24035605 -0.11242088 41.23292542 -0.10656738 C47.6335461 -0.10066969 54.0334087 -0.13126191 60.43388271 -0.17168427 C65.35209244 -0.197522 70.27011867 -0.20044222 75.18838692 -0.1967926 C77.54832426 -0.19848744 79.90826976 -0.20816474 82.26814079 -0.22593689 C85.56730402 -0.24804851 88.86492025 -0.23846313 92.16407776 -0.2208252 C93.14034622 -0.23408844 94.11661469 -0.24735168 95.12246704 -0.26101685 C99.71943839 -0.20385451 101.83675351 -0.08669153 105.63198853 2.70629883 C107.49049377 5.39440918 107.49049377 5.39440918 107.55299377 9.01940918 C106.37384138 12.76495208 105.76605852 13.45450669 102.49049377 15.39440918 C100.32279968 15.77751923 100.32279968 15.77751923 97.93629456 15.78881836 C97.0278479 15.80016815 96.11940125 15.81151794 95.1834259 15.82321167 C94.19421143 15.82028107 93.20499695 15.81735046 92.18580627 15.81433105 C91.13826172 15.8228006 90.09071716 15.83127014 89.01142883 15.83999634 C85.54599394 15.86341101 82.08100181 15.8643875 78.61549377 15.86315918 C76.20940471 15.87025736 73.80331736 15.87795585 71.39723206 15.88623047 C66.35340163 15.8996851 61.30972776 15.90123927 56.2658844 15.89538574 C49.79566652 15.88948486 43.32619776 15.92009377 36.85612488 15.96050262 C31.88734373 15.98632275 26.91874439 15.98926225 21.9499054 15.98561096 C19.56402196 15.98730713 17.17813057 15.99699702 14.79231262 16.01475525 C11.45942164 16.03683462 8.12806599 16.02729838 4.79518127 16.00964355 C3.8059668 16.0229068 2.81675232 16.03617004 1.79756165 16.04983521 C-4.85377166 15.96776823 -4.85377166 15.96776823 -8.15354919 13.08251953 C-10.01640781 9.38950463 -9.67172766 7.31690652 -8.50950623 3.39440918 C-5.72154032 0.75419635 -3.80365916 0.01820932 0 0 Z " fill="#A89DA8" transform="translate(154.50950622558594,309.6055908203125)"/>
<path d="M0 0 C0.9000325 -0.00845947 1.800065 -0.01691895 2.72737122 -0.02563477 C3.70723495 -0.01956207 4.68709869 -0.01348938 5.69665527 -0.00723267 C6.73444626 -0.01248962 7.77223724 -0.01774658 8.84147644 -0.02316284 C12.27447527 -0.03637467 15.70701104 -0.02762029 19.14001465 -0.01748657 C21.52368255 -0.01950696 23.90734984 -0.0224181 26.29101562 -0.02618408 C31.28777957 -0.03060905 36.28438267 -0.02417065 41.28112793 -0.01016235 C47.69064384 0.00692942 54.0997829 -0.00291081 60.50928497 -0.02087975 C65.43173062 -0.03171279 70.35408671 -0.0282734 75.27653503 -0.02049637 C77.64007105 -0.01849304 80.00361516 -0.02095825 82.36714172 -0.02793503 C85.66860539 -0.0355414 88.96945609 -0.02395609 92.27087402 -0.00723267 C93.25073776 -0.01330536 94.2306015 -0.01937805 95.24015808 -0.02563477 C96.14019058 -0.01717529 97.04022308 -0.00871582 97.9675293 0 C98.74770164 0.00113108 99.52787399 0.00226215 100.33168793 0.00342751 C103.11780317 0.49217577 104.49463457 1.38202968 106.48376465 3.38095093 C106.48376465 7.38095093 106.48376465 7.38095093 104.87814331 9.4879303 C95.23658544 17.61623357 84.73248169 16.49229907 72.71032715 16.33798218 C70.49600326 16.33574972 68.28167489 16.33633999 66.06735229 16.33961487 C61.44571998 16.33787833 56.82533834 16.30892953 52.20397949 16.25912476 C46.28205177 16.19654042 40.36181736 16.19188554 34.43963051 16.20610523 C29.87560692 16.21251376 25.3119661 16.1937724 20.7480278 16.16684532 C18.56397125 16.1559751 16.37987158 16.15168727 14.19578934 16.15412331 C11.14855502 16.15269636 8.10341003 16.11870448 5.05651855 16.07553101 C4.15670258 16.08093903 3.2568866 16.08634705 2.32980347 16.09191895 C-2.08336846 15.99418246 -3.97660421 15.78498642 -7.61062622 13.06410217 C-9.51623535 10.38095093 -9.51623535 10.38095093 -9.57873535 6.75595093 C-7.96086265 1.61682587 -5.29684774 0.00767925 0 0 Z " fill="#A79BA7" transform="translate(154.5162353515625,365.6190490722656)"/>
<path d="M0 0 C5.7535986 2.87613629 10.16900479 7.21089804 13 13 C14.94647795 19.50397704 14.80373844 26.58398138 11.6015625 32.6484375 C9.86040009 34.70474242 8.08112838 36.29132448 6 38 C5.58339111 38.49363037 5.16678223 38.98726074 4.73754883 39.49584961 C1.98898282 42.67932431 -0.06335915 44.37887102 -4.28515625 45.04296875 C-12.0141166 45.53474572 -18.734077 45.20253312 -24.97875977 40.2512207 C-30.46937473 35.02576188 -33.33361565 29.63750768 -33.625 22 C-33.33453691 14.38663976 -30.49559676 8.93289046 -24.96337891 3.76416016 C-17.63713613 -1.96012888 -8.75641241 -2.89370154 0 0 Z " fill="#7A6D79" transform="translate(208,182)"/>
<path d="M0 0 C0.80037689 -0.00058411 1.60075378 -0.00116821 2.42538452 -0.00177002 C5.06626014 0.00101281 7.7060017 0.03211322 10.34667969 0.06347656 C12.17941674 0.07093827 14.01216178 0.07663153 15.84490967 0.08062744 C20.66526371 0.09588935 25.48513454 0.13517594 30.30529785 0.17944336 C35.2252753 0.22038406 40.14533094 0.23863589 45.06542969 0.25878906 C54.71671766 0.30166982 64.36752037 0.37202421 74.01855469 0.45410156 C74.01855469 5.40410156 74.01855469 10.35410156 74.01855469 15.45410156 C63.54384193 15.56708426 53.06953416 15.65880704 42.59434986 15.71316242 C37.73023139 15.73925097 32.86655156 15.7746354 28.00268555 15.83129883 C23.3083077 15.88564519 18.61435162 15.91552769 13.91968346 15.92848778 C12.12907967 15.93772297 10.33849884 15.95575749 8.54807472 15.98275185 C6.0387862 16.01907827 3.53123788 16.0240456 1.02172852 16.02172852 C0.28229507 16.0397049 -0.45713837 16.05768127 -1.21897888 16.07620239 C-5.13919803 16.03706214 -6.83278621 15.57162684 -9.94648743 13.11003113 C-11.98144531 10.45410156 -11.98144531 10.45410156 -12.54394531 7.39160156 C-11.18666506 0.30358246 -6.33394813 -0.12106812 0 0 Z " fill="#A89DA8" transform="translate(156.9814453125,421.5458984375)"/>
<path d="M0 0 C23.76 0 47.52 0 72 0 C72 0.33 72 0.66 72 1 C58.47 1 44.94 1 31 1 C31 10.57 31 20.14 31 30 C40.24 30 49.48 30 59 30 C59 30.33 59 30.66 59 31 C39.53 31 20.06 31 0 31 C0 20.77 0 10.54 0 0 Z " fill="#FDBA80" transform="translate(285,50)"/>
<path d="M0 0 C3.5 0.8125 3.5 0.8125 5.4375 1.9375 C7.18402625 5.01960515 6.86114748 7.31786702 6.5 10.8125 C5.05972484 13.60365648 3.16671743 15.94611112 1.1875 18.375 C0.6500415 19.06102295 0.11258301 19.7470459 -0.44116211 20.45385742 C-1.5584406 21.8765766 -2.68296471 23.29363381 -3.81445312 24.70507812 C-5.44332731 26.74164272 -7.04603241 28.79590347 -8.640625 30.859375 C-11.23155143 34.20208163 -13.82723636 37.53458233 -16.5 40.8125 C-16.95246094 41.43511719 -17.40492187 42.05773437 -17.87109375 42.69921875 C-20.76503341 44.67709118 -23.12814291 44.27395027 -26.5 43.8125 C-29.125 41.72265625 -29.125 41.72265625 -31.5 38.875 C-32.34304687 37.86953125 -33.18609375 36.8640625 -34.0546875 35.828125 C-35.26511719 34.33539063 -35.26511719 34.33539063 -36.5 32.8125 C-37.22445312 32.00296875 -37.94890625 31.1934375 -38.6953125 30.359375 C-41.72564012 26.8505746 -43.91751396 24.1837431 -44.125 19.4375 C-43.5 15.8125 -43.5 15.8125 -42.5 13.8125 C-39.95490016 12.53995008 -37.62325907 11.98470102 -34.7734375 12.04296875 C-29.76578821 13.7379978 -26.62997125 18.75512986 -23.5 22.8125 C-18.55954511 18.17284772 -14.75226026 12.90468462 -10.78515625 7.43164062 C-10.02138672 6.39233398 -10.02138672 6.39233398 -9.2421875 5.33203125 C-8.7869873 4.70401611 -8.33178711 4.07600098 -7.86279297 3.42895508 C-5.31943625 0.41219319 -3.94381022 -0.21127555 0 0 Z " fill="#88E8D0" transform="translate(125.5,407.1875)"/>
<path d="M0 0 C3.625 0.375 3.625 0.375 6.0625 1.9375 C8.28976831 5.41203857 8.14846033 7.27387382 7.625 11.375 C5.83902915 14.5321866 3.57749984 17.22741843 1.25 20 C-0.03569011 21.58550474 -1.32084243 23.17144572 -2.60546875 24.7578125 C-3.24403809 25.53543945 -3.88260742 26.31306641 -4.54052734 27.11425781 C-7.13069439 30.30629226 -9.59684127 33.58650924 -12.0625 36.875 C-17.42744688 44.01624021 -17.42744688 44.01624021 -21.75 44.8125 C-27.55177954 43.84553674 -31.89798557 36.5585206 -35.625 32.1875 C-36.16640625 31.55908203 -36.7078125 30.93066406 -37.265625 30.28320312 C-42.27775187 24.42527985 -42.27775187 24.42527985 -42.6875 20 C-42.375 16.375 -42.375 16.375 -40.8125 13.875 C-38.18122073 12.25575122 -36.46059952 11.75368292 -33.390625 12.34765625 C-28.74621279 14.71486635 -25.57937546 19.37134721 -22.375 23.375 C-18.09012422 19.34357343 -14.65789415 14.92765518 -11.1875 10.1875 C-10.13292323 8.75546891 -9.07699344 7.32443296 -8.01953125 5.89453125 C-7.55909424 5.26651611 -7.09865723 4.63850098 -6.62426758 3.99145508 C-4.37762063 1.08446868 -3.8092657 0.42325174 0 0 Z " fill="#88E8D0" transform="translate(124.375,295.625)"/>
<path d="M0 0 C3.375 0.6875 3.375 0.6875 5.8125 2.3125 C7.83893122 5.39267546 7.73004502 7.04267071 7.375 10.6875 C5.9765625 13.22265625 5.9765625 13.22265625 4 15.75 C3.27296875 16.69617188 2.5459375 17.64234375 1.796875 18.6171875 C0.59804687 20.13699219 0.59804687 20.13699219 -0.625 21.6875 C-1.47585062 22.79281676 -2.32477435 23.89961919 -3.171875 25.0078125 C-4.87013799 27.22854376 -6.57608638 29.44294462 -8.2890625 31.65234375 C-10.73486192 34.83024701 -13.1199668 38.04681453 -15.46875 41.296875 C-17.42741073 43.65256155 -18.83226034 43.71319139 -21.90234375 44.09375 C-26.59933197 43.58117206 -28.34154831 41.67165051 -31.1875 38.1875 C-31.65712158 37.63940674 -32.12674316 37.09131348 -32.6105957 36.52661133 C-33.54162202 35.43051969 -34.46307421 34.3262124 -35.37402344 33.21337891 C-36.44555392 31.90637939 -37.55157905 30.62779178 -38.6640625 29.35546875 C-41.38203006 26.09004327 -42.53855722 24.20615669 -43.25 19.9375 C-42.625 16.6875 -42.625 16.6875 -41 14.25 C-37.86816508 12.18958229 -36.30955227 12.0107455 -32.625 12.6875 C-30.0625 14.8125 -30.0625 14.8125 -27.625 17.6875 C-27.15578125 18.23792969 -26.6865625 18.78835938 -26.203125 19.35546875 C-24.99380273 20.78559424 -23.80730228 22.2349572 -22.625 23.6875 C-19.43047812 20.6592089 -16.84731424 17.42466279 -14.25 13.875 C-13.46109375 12.82183594 -12.6721875 11.76867187 -11.859375 10.68359375 C-10.54158321 8.91655476 -9.23463994 7.14117833 -7.953125 5.34765625 C-5.45037542 2.05775155 -4.12529742 0.78238399 0 0 Z " fill="#87E8D0" transform="translate(124.625,351.3125)"/>
<path d="M0 0 C1.12792969 -0.02384766 2.25585938 -0.04769531 3.41796875 -0.07226562 C12.6179514 -0.05593429 12.6179514 -0.05593429 15.74609375 2.90625 C17.89642108 6.16287046 18.23286236 7.73532989 17.5 11.5625 C15.30922397 14.44470393 14.12885039 15.45316162 10.52319336 16.08007812 C9.39018799 16.08458984 8.25718262 16.08910156 7.08984375 16.09375 C5.23456055 16.10148437 5.23456055 16.10148437 3.34179688 16.109375 C2.05337891 16.09390625 0.76496094 16.0784375 -0.5625 16.0625 C-1.85478516 16.07796875 -3.14707031 16.0934375 -4.47851562 16.109375 C-5.71408203 16.10421875 -6.94964844 16.0990625 -8.22265625 16.09375 C-9.92047241 16.08698242 -9.92047241 16.08698242 -11.65258789 16.08007812 C-14.5 15.5625 -14.5 15.5625 -16.36108398 13.74804688 C-18.06597835 10.47640392 -18.01769322 8.18635257 -17.5 4.5625 C-13.01542672 -1.0332064 -6.55646091 -0.06369133 0 0 Z " fill="#FEFDF8" transform="translate(198.5,42.4375)"/>
<path d="M0 0 C6.93 3.96 6.93 3.96 14 8 C14 8.33 14 8.66 14 9 C-1.18 9 -16.36 9 -32 9 C-32 8.67 -32 8.34 -32 8 C-21.44 8 -10.88 8 0 8 C0 5.36 0 2.72 0 0 Z " fill="#EAF1F8" transform="translate(316,356)"/>
</svg>
